<?xml version="1.0" encoding="utf-8"?>
<!-- Generator: Adobe Illustrator 26.2.1, SVG Export Plug-In . SVG Version: 6.00 Build 0)  -->
<svg version="1.1" id="Layer_1" xmlns="http://www.w3.org/2000/svg" xmlns:xlink="http://www.w3.org/1999/xlink" x="0px" y="0px"
	 viewBox="0 0 19.97 19.97" style="enable-background:new 0 0 19.97 19.97;" xml:space="preserve">
<style type="text/css">
	.st0{fill:url(#SVGID_1_);}
	.st1{fill:#8091C1;}
	.st2{fill:#D6DDF0;}
	.st3{fill:url(#SVGID_00000163071134525952435680000011646535573206101639_);}
	.st4{fill:#8D9FCB;}
	.st5{fill:#FFFFFF;}
</style>
<g>
	
		<linearGradient id="SVGID_1_" gradientUnits="userSpaceOnUse" x1="-1474.3179" y1="1087.1486" x2="-1474.3098" y2="1087.1486" gradientTransform="matrix(1029.113 1357.134 -1357.134 1029.113 2992652.5 882054.25)">
		<stop  offset="0" style="stop-color:#455E9B"/>
		<stop  offset="1" style="stop-color:#5A70B3"/>
	</linearGradient>
	<path class="st0" d="M1.13,7.11v8.74c0,1.65,1.34,2.99,2.99,2.99h11.72c1.65,0,2.99-1.34,2.99-2.99V7.14
		c-2.53,0.66-5.55,1.05-8.8,1.05C6.74,8.19,3.68,7.79,1.13,7.11 M0,3.45C0,3.5,0,3.54,0,3.59v12.8c0,1.98,1.61,3.58,3.58,3.58h12.8
		c1.98,0,3.58-1.61,3.58-3.58V3.59c0-0.02,0-0.05,0-0.07v3.3c-0.15,0.05-0.3,0.09-0.46,0.14v9.14c0,1.89-1.53,3.42-3.42,3.42H3.87
		c-1.89,0-3.42-1.53-3.42-3.42V6.92C0.3,6.87,0.15,6.83,0,6.78V3.57C0,3.53,0,3.49,0,3.45"/>
	<path class="st1" d="M1.13,4.12c0-1.65,1.34-2.99,2.99-2.99h11.72c1.65,0,2.99,1.34,2.99,2.99v11.73c0,1.65-1.34,2.99-2.99,2.99
		H4.12c-1.65,0-2.99-1.34-2.99-2.99V4.12 M0.45,3.88v12.21c0,1.89,1.53,3.42,3.42,3.42h12.21c1.89,0,3.42-1.53,3.42-3.42V3.88
		c0-1.88-1.53-3.42-3.42-3.42H3.87C1.99,0.46,0.45,2,0.45,3.88"/>
	<path class="st2" d="M16.54,0H3.38c-0.09,0-0.18,0-0.26,0.01C1.4,0.24,0.06,1.68,0,3.45C0.07,1.54,1.65,0,3.58,0h12.8
		c1.95,0,3.54,1.57,3.58,3.51V3.51c-0.03-1.76-1.33-3.22-3.03-3.48C16.81,0.01,16.68,0,16.54,0"/>
	
		<linearGradient id="SVGID_00000036947732307654217170000011791659278294818961_" gradientUnits="userSpaceOnUse" x1="-1474.3179" y1="1087.1464" x2="-1474.3098" y2="1087.1464" gradientTransform="matrix(1029.113 1357.134 -1357.134 1029.113 2992652.5 882054.25)">
		<stop  offset="0" style="stop-color:#697BB0"/>
		<stop  offset="1" style="stop-color:#7688C2"/>
	</linearGradient>
	<path style="fill:url(#SVGID_00000036947732307654217170000011791659278294818961_);" d="M15.84,1.13H4.12
		c-1.65,0-2.99,1.34-2.99,2.99v2.99c2.55,0.68,5.62,1.08,8.91,1.08c3.24,0,6.27-0.38,8.8-1.05V4.12C18.83,2.47,17.5,1.13,15.84,1.13
		 M16.38,0H3.58C1.65,0,0.07,1.54,0,3.45c0,0.04,0,0.08,0,0.12v3.21c0.15,0.05,0.31,0.1,0.46,0.14V3.88c0-1.88,1.53-3.42,3.42-3.42
		h12.21c1.89,0,3.42,1.53,3.42,3.42v3.07c0.15-0.05,0.31-0.09,0.46-0.14v-3.3C19.92,1.57,18.33,0,16.38,0"/>
	<path class="st4" d="M16.09,0.46H3.87C1.99,0.46,0.45,2,0.45,3.88v3.04C0.68,6.99,0.9,7.05,1.13,7.11V4.12
		c0-1.65,1.34-2.99,2.99-2.99h11.72c1.65,0,2.99,1.34,2.99,2.99v3.02c0.23-0.06,0.45-0.12,0.67-0.18V3.88
		C19.5,2,17.97,0.46,16.09,0.46"/>
	<path class="st5" d="M15.34,5.4h1.28V2.81h-2.77c-1.68,0-3.05,1.37-3.05,3.05v1.55H8.6V10h2.19v7.98h3.4V10h2.42V7.41h-2.42V6.54
		C14.19,5.91,14.7,5.4,15.34,5.4L15.34,5.4z"/>
</g>
</svg>
