<?xml version="1.0" encoding="utf-8"?>
<!-- Generator: Adobe Illustrator 26.2.1, SVG Export Plug-In . SVG Version: 6.00 Build 0)  -->
<svg version="1.1" id="Layer_1" xmlns="http://www.w3.org/2000/svg" xmlns:xlink="http://www.w3.org/1999/xlink" x="0px" y="0px"
	 viewBox="0 0 200 200" style="enable-background:new 0 0 200 200;" xml:space="preserve">
<style type="text/css">
	.st0{fill:url(#SVGID_1_);}
	.st1{fill:#8091C1;}
	.st2{fill:#D6DDF0;}
	.st3{fill:url(#SVGID_00000044892720361757822450000010084781186868417166_);}
	.st4{fill:#8D9FCB;}
	.st5{fill:#FFFFFF;}
</style>
<g>
	
		<linearGradient id="SVGID_1_" gradientUnits="userSpaceOnUse" x1="-1473.281" y1="-936.1075" x2="-1473.2003" y2="-936.1075" gradientTransform="matrix(1029.113 1357.134 1357.134 -1029.113 2786661.25 1036139.25)">
		<stop  offset="0" style="stop-color:#455E9B"/>
		<stop  offset="1" style="stop-color:#5A70B3"/>
	</linearGradient>
	<path class="st0" d="M11.3,71.2v87.5c0,16.5,13.4,29.9,29.9,29.9h117.4c16.5,0,29.9-13.4,29.9-29.9V71.5
		C163.2,78.1,133,82,100.5,82C67.5,82,36.9,78,11.3,71.2 M0,34.6c0,0.5,0,0.9,0,1.4v128.2C0,184,16.1,200,35.9,200H164
		c19.8,0,35.9-16.1,35.9-35.9V36c0-0.2,0-0.5,0-0.7v33c-1.5,0.5-3,0.9-4.6,1.4v91.5c0,18.9-15.3,34.3-34.3,34.3H38.8
		c-18.9,0-34.3-15.3-34.3-34.3V69.3c-1.5-0.5-3-0.9-4.5-1.4V35.8C0,35.4,0,35,0,34.6"/>
	<path class="st1" d="M11.3,41.3c0-16.5,13.4-29.9,29.9-29.9h117.4c16.5,0,29.9,13.4,29.9,29.9v117.5c0,16.5-13.4,29.9-29.9,29.9
		H41.3c-16.5,0-29.9-13.4-29.9-29.9L11.3,41.3 M4.5,38.9v122.3c0,18.9,15.3,34.3,34.3,34.3H161c18.9,0,34.3-15.3,34.3-34.3V38.9
		C195.3,20,180,4.6,161,4.6H38.8C19.9,4.6,4.5,20,4.5,38.9"/>
	<path class="st2" d="M165.6,0H33.9c-0.9,0-1.8,0-2.6,0.1C14,2.4,0.6,16.8,0,34.6C0.7,15.4,16.5,0,35.9,0H164
		c19.5,0,35.5,15.7,35.9,35.2l0,0c-0.3-17.6-13.3-32.2-30.3-34.9C168.4,0.1,167.1,0,165.6,0"/>
	
		<linearGradient id="SVGID_00000138563186519646896810000010993613333150518962_" gradientUnits="userSpaceOnUse" x1="-1473.281" y1="-936.0863" x2="-1473.2003" y2="-936.0863" gradientTransform="matrix(1029.113 1357.134 1357.134 -1029.113 2786661.25 1036139.25)">
		<stop  offset="0" style="stop-color:#697BB0"/>
		<stop  offset="1" style="stop-color:#7688C2"/>
	</linearGradient>
	<path style="fill:url(#SVGID_00000138563186519646896810000010993613333150518962_);" d="M158.6,11.3H41.3
		c-16.5,0-29.9,13.4-29.9,29.9v29.9C36.9,78,67.6,82,100.6,82c32.4,0,62.8-3.8,88.1-10.5V41.3C188.6,24.7,175.3,11.3,158.6,11.3
		 M164,0H35.9C16.5,0,0.7,15.4,0,34.6c0,0.4,0,0.8,0,1.2v32.1c1.5,0.5,3.1,1,4.6,1.4V38.9C4.6,20,19.9,4.6,38.9,4.6h122.3
		c18.9,0,34.3,15.3,34.3,34.3v30.7c1.5-0.5,3.1-0.9,4.6-1.4v-33C199.5,15.7,183.6,0,164,0"/>
	<path class="st4" d="M161.1,4.6H38.8C19.9,4.6,4.5,20,4.5,38.9v30.4c2.3,0.7,4.5,1.3,6.8,1.9V41.3c0-16.5,13.4-29.9,29.9-29.9
		h117.4c16.5,0,29.9,13.4,29.9,29.9v30.2c2.3-0.6,4.5-1.2,6.7-1.8V38.9C195.3,20,180,4.6,161.1,4.6"/>
	<path class="st5" d="M153.6,54.1h12.8V28.1h-27.7c-16.8,0-30.5,13.7-30.5,30.5v15.5h-22v25.9h21.9v79.9h34.1v-79.9h24.2V74.2h-24.2
		v-8.7C142.1,59.2,147.2,54.1,153.6,54.1L153.6,54.1z"/>
</g>
</svg>
