<?xml version="1.0" encoding="utf-8"?>
<!-- Generator: Adobe Illustrator 26.2.1, SVG Export Plug-In . SVG Version: 6.00 Build 0)  -->
<svg version="1.1" id="Layer_1" xmlns="http://www.w3.org/2000/svg" xmlns:xlink="http://www.w3.org/1999/xlink" x="0px" y="0px"
	 viewBox="0 0 200 200" style="enable-background:new 0 0 200 200;" xml:space="preserve">
<style type="text/css">
	.st0{fill:url(#SVGID_1_);}
	.st1{fill:#8091C1;}
	.st2{fill:#D6DDF0;}
	.st3{fill:url(#SVGID_00000025444564579077931250000000355116108126007178_);}
	.st4{fill:#8D9FCB;}
	.st5{fill:#FFFFFF;}
</style>
<linearGradient id="SVGID_1_" gradientUnits="userSpaceOnUse" x1="-1384.3055" y1="-1027.1846" x2="-1384.2257" y2="-1027.1846" gradientTransform="matrix(1029.113 1357.134 1357.134 -1029.113 2818699.75 821659.625)">
	<stop  offset="0" style="stop-color:#455E9B"/>
	<stop  offset="1" style="stop-color:#5A70B3"/>
</linearGradient>
<path class="st0" d="M11.46,71.21v87.41c0,16.54,13.38,29.92,29.92,29.92h117.24c16.54,0,29.92-13.38,29.92-29.92v-87.1
	c-25.3,6.62-55.52,10.46-87.96,10.46C67.63,81.98,37,78.02,11.46,71.21 M0.19,34.61c-0.02,0.47-0.03,0.93-0.03,1.4V164
	c0,19.75,16.08,35.84,35.84,35.84h127.99c19.76,0,35.84-16.08,35.84-35.84V36.01c0-0.24,0-0.48-0.01-0.72v33
	c-1.5,0.47-3.03,0.93-4.58,1.38v91.39c0,18.85-15.34,34.19-34.19,34.19H38.94c-18.85,0-34.19-15.34-34.19-34.19V69.33
	c-1.55-0.46-3.07-0.93-4.58-1.41V35.81C0.17,35.41,0.18,35.01,0.19,34.61"/>
<path class="st1" d="M11.46,41.34c0-16.5,13.38-29.92,29.92-29.92h117.24c16.54,0,29.92,13.42,29.92,29.92v117.28
	c0,16.54-13.38,29.92-29.92,29.92H41.38c-16.54,0-29.92-13.38-29.92-29.92L11.46,41.34 M4.75,38.95v122.11
	c0,18.85,15.34,34.19,34.19,34.19h122.11c18.85,0,34.19-15.34,34.19-34.19V38.95c0-18.85-15.34-34.19-34.19-34.19H38.94
	C20.09,4.75,4.75,20.1,4.75,38.95"/>
<path class="st2" d="M165.63,0.17H33.99c-0.89,0-1.76,0.04-2.63,0.11C14.18,2.52,0.78,16.97,0.19,34.61
	C0.93,15.5,16.72,0.17,36.01,0.17h127.99c19.51,0,35.44,15.69,35.83,35.11v-0.07c-0.29-17.6-13.33-32.17-30.27-34.81
	C168.27,0.25,166.96,0.17,165.63,0.17"/>
<linearGradient id="SVGID_00000157988726374358274970000001124220366182949790_" gradientUnits="userSpaceOnUse" x1="-1384.3055" y1="-1027.1633" x2="-1384.2257" y2="-1027.1633" gradientTransform="matrix(1029.113 1357.134 1357.134 -1029.113 2818699.75 821659.625)">
	<stop  offset="0" style="stop-color:#697BB0"/>
	<stop  offset="1" style="stop-color:#7688C2"/>
</linearGradient>
<path style="fill:url(#SVGID_00000157988726374358274970000001124220366182949790_);" d="M158.62,11.42H41.38
	c-16.54,0-29.92,13.42-29.92,29.92v29.87c25.53,6.8,56.17,10.76,89.12,10.76c32.44,0,62.66-3.84,87.96-10.46V41.34
	C188.54,24.84,175.16,11.42,158.62,11.42 M163.99,0.17H36.01C16.72,0.17,0.93,15.5,0.19,34.61c-0.01,0.4-0.02,0.8-0.02,1.2v32.11
	c1.52,0.49,3.05,0.96,4.58,1.41V38.95C4.75,20.1,20.1,4.75,38.94,4.75h122.11c18.85,0,34.19,15.34,34.19,34.19v30.72
	c1.53-0.45,3.06-0.91,4.58-1.38v-33C199.44,15.86,183.51,0.17,163.99,0.17"/>
<path class="st4" d="M161.06,4.75H38.94C20.09,4.75,4.75,20.1,4.75,38.95v30.38c2.23,0.66,4.46,1.29,6.71,1.89V41.34
	c0-16.5,13.38-29.92,29.92-29.92h117.24c16.54,0,29.92,13.42,29.92,29.92v30.18c2.25-0.59,4.48-1.2,6.71-1.85V38.95
	C195.25,20.1,179.91,4.75,161.06,4.75"/>
<path class="st5" d="M153.57,54.11h12.8v-25.9h-27.75c-16.85,0-30.52,13.66-30.52,30.52v15.5H86.21v25.9h21.89v79.76h34.04v-79.76
	h24.22v-25.9h-24.22v-8.69C142.15,59.23,147.26,54.11,153.57,54.11L153.57,54.11z"/>
</svg>
