<?xml version="1.0" encoding="utf-8"?>
<!-- Generator: Adobe Illustrator 26.2.1, SVG Export Plug-In . SVG Version: 6.00 Build 0)  -->
<svg version="1.1" id="Layer_1" xmlns="http://www.w3.org/2000/svg" xmlns:xlink="http://www.w3.org/1999/xlink" x="0px" y="0px"
	 viewBox="0 0 200 200" style="enable-background:new 0 0 200 200;" xml:space="preserve">
<style type="text/css">
	.st0{fill:url(#SVGID_1_);}
	.st1{fill:url(#SVGID_00000010997416945274029120000002475676827050954169_);}
	.st2{fill:#FFFFFF;}
</style>
<radialGradient id="SVGID_1_" cx="13.04" cy="5.501" r="253.6197" gradientTransform="matrix(1.0001 0 0 -1.0001 -4.458427e-05 201.0134)" gradientUnits="userSpaceOnUse">
	<stop  offset="0.09" style="stop-color:#FA8F21"/>
	<stop  offset="0.78" style="stop-color:#D82D7E"/>
</radialGradient>
<path class="st0" d="M50.77,199.18c-11.88-0.54-18.33-2.52-22.63-4.19c-5.69-2.21-9.74-4.85-14.01-9.11s-6.91-8.32-9.11-14.01
	c-1.67-4.29-3.65-10.75-4.19-22.63c-0.59-12.84-0.71-16.7-0.71-49.23s0.13-36.38,0.71-49.24c0.54-11.88,2.53-18.32,4.19-22.63
	c2.21-5.69,4.86-9.74,9.11-14.02c4.26-4.26,8.32-6.91,14.01-9.11c4.29-1.67,10.75-3.65,22.63-4.19C63.61,0.23,67.47,0.11,100,0.11
	c32.54,0,36.38,0.13,49.24,0.71c11.88,0.54,18.32,2.53,22.63,4.19c5.69,2.2,9.74,4.85,14.01,9.11c4.27,4.26,6.9,8.32,9.11,14.01
	c1.67,4.29,3.65,10.75,4.19,22.63c0.59,12.85,0.71,16.7,0.71,49.24c0,32.53-0.12,36.38-0.71,49.24
	c-0.54,11.88-2.53,18.33-4.19,22.63c-2.21,5.69-4.85,9.74-9.11,14.01s-8.32,6.9-14.01,9.11c-4.29,1.67-10.75,3.65-22.63,4.19
	c-12.84,0.59-16.7,0.71-49.24,0.71C67.47,199.89,63.61,199.78,50.77,199.18"/>
<radialGradient id="SVGID_00000101094756746988262200000008947293140427388327_" cx="138.4778" cy="11.9153" r="223.1878" gradientTransform="matrix(1.0001 0 0 -1.0001 -4.458427e-05 201.0134)" gradientUnits="userSpaceOnUse">
	<stop  offset="0.64" style="stop-color:#8C3AAA;stop-opacity:0"/>
	<stop  offset="1" style="stop-color:#8C3AAA"/>
</radialGradient>
<path style="fill:url(#SVGID_00000101094756746988262200000008947293140427388327_);" d="M50.77,199.18
	c-11.88-0.54-18.33-2.52-22.63-4.19c-5.69-2.21-9.74-4.85-14.01-9.11s-6.91-8.32-9.11-14.01c-1.67-4.29-3.65-10.75-4.19-22.63
	c-0.59-12.84-0.71-16.7-0.71-49.23s0.13-36.38,0.71-49.24c0.54-11.88,2.53-18.32,4.19-22.63c2.21-5.69,4.86-9.74,9.11-14.02
	c4.26-4.26,8.32-6.91,14.01-9.11c4.29-1.67,10.75-3.65,22.63-4.19C63.61,0.23,67.47,0.11,100,0.11c32.54,0,36.38,0.13,49.24,0.71
	c11.88,0.54,18.32,2.53,22.63,4.19c5.69,2.2,9.74,4.85,14.01,9.11c4.27,4.26,6.9,8.32,9.11,14.01c1.67,4.29,3.65,10.75,4.19,22.63
	c0.59,12.85,0.71,16.7,0.71,49.24c0,32.53-0.12,36.38-0.71,49.24c-0.54,11.88-2.53,18.33-4.19,22.63
	c-2.21,5.69-4.85,9.74-9.11,14.01s-8.32,6.9-14.01,9.11c-4.29,1.67-10.75,3.65-22.63,4.19c-12.84,0.59-16.7,0.71-49.24,0.71
	C67.47,199.89,63.61,199.78,50.77,199.18"/>
<path class="st2" d="M75.47,100.43c0-13.66,11.07-24.74,24.74-24.74s24.74,11.08,24.74,24.74s-11.08,24.74-24.74,24.74
	S75.47,114.09,75.47,100.43 M62.1,100.43c0,21.05,17.06,38.11,38.11,38.11s38.11-17.06,38.11-38.11s-17.06-38.11-38.11-38.11
	S62.1,79.38,62.1,100.43 M130.92,60.8c0,4.92,3.98,8.91,8.9,8.91c4.92,0,8.91-3.98,8.91-8.9s-3.98-8.91-8.9-8.91h0
	C134.91,51.9,130.93,55.89,130.92,60.8 M70.22,160.84c-7.24-0.33-11.17-1.53-13.78-2.55c-3.47-1.35-5.94-2.96-8.54-5.55
	c-2.6-2.6-4.21-5.07-5.55-8.53c-1.02-2.61-2.22-6.55-2.55-13.78c-0.36-7.82-0.43-10.17-0.43-29.99s0.08-22.16,0.43-29.99
	c0.33-7.24,1.54-11.16,2.55-13.78c1.35-3.47,2.96-5.94,5.55-8.54s5.07-4.21,8.54-5.55c2.61-1.02,6.55-2.22,13.78-2.55
	c7.82-0.36,10.17-0.43,29.98-0.43s22.16,0.08,29.99,0.43c7.24,0.33,11.16,1.54,13.78,2.55c3.47,1.34,5.94,2.96,8.54,5.55
	c2.6,2.6,4.2,5.07,5.55,8.54c1.02,2.61,2.22,6.55,2.55,13.78c0.36,7.83,0.43,10.17,0.43,29.99s-0.07,22.16-0.43,29.99
	c-0.33,7.24-1.54,11.17-2.55,13.78c-1.35,3.47-2.96,5.94-5.55,8.53s-5.07,4.2-8.54,5.55c-2.61,1.02-6.55,2.22-13.78,2.55
	c-7.82,0.36-10.17,0.43-29.99,0.43S78.04,161.2,70.22,160.84 M69.61,26.66c-7.9,0.36-13.3,1.61-18.01,3.45
	c-4.88,1.89-9.02,4.44-13.15,8.56s-6.67,8.26-8.56,13.15c-1.83,4.72-3.09,10.11-3.45,18.01c-0.37,7.91-0.45,10.44-0.45,30.6
	s0.08,22.69,0.45,30.6c0.36,7.9,1.61,13.3,3.45,18.01c1.89,4.88,4.43,9.02,8.56,13.15c4.13,4.12,8.26,6.66,13.15,8.56
	c4.72,1.83,10.11,3.09,18.01,3.45c7.92,0.36,10.44,0.45,30.6,0.45s22.69-0.08,30.6-0.45c7.9-0.36,13.3-1.61,18.01-3.45
	c4.88-1.9,9.02-4.44,13.15-8.56c4.13-4.12,6.66-8.27,8.56-13.15c1.83-4.72,3.09-10.11,3.45-18.01c0.36-7.92,0.44-10.44,0.44-30.6
	s-0.08-22.69-0.44-30.6c-0.36-7.9-1.61-13.3-3.45-18.01c-1.9-4.88-4.44-9.02-8.56-13.15c-4.12-4.13-8.27-6.67-13.14-8.56
	c-4.72-1.83-10.12-3.09-18.01-3.45c-7.91-0.36-10.44-0.45-30.6-0.45S77.53,26.29,69.61,26.66"/>
</svg>
